<svg width="18" height="19" viewBox="0 0 18 19" fill="none" xmlns="http://www.w3.org/2000/svg">
<g opacity="0.8">
<path d="M2.83322 9.45677C2.1222 8.21698 1.77889 7.20461 1.57188 6.17841C1.26572 4.66068 1.96636 3.1781 3.12704 2.23211C3.61759 1.83229 4.17992 1.96889 4.47 2.4893L5.12489 3.66418C5.64397 4.59542 5.90351 5.06105 5.85203 5.55469C5.80055 6.04834 5.45053 6.4504 4.75048 7.2545L2.83322 9.45677ZM2.83322 9.45677C4.27238 11.9662 6.53088 14.2259 9.04323 15.6668M9.04323 15.6668C10.283 16.3778 11.2954 16.7211 12.3216 16.9281C13.8393 17.2343 15.3219 16.5336 16.2679 15.373C16.6677 14.8824 16.5311 14.3201 16.0107 14.03L14.8358 13.3751C13.9046 12.856 13.439 12.5965 12.9453 12.648C12.4517 12.6995 12.0496 13.0495 11.2455 13.7495L9.04323 15.6668Z" stroke="white" stroke-width="1.5" stroke-linejoin="round"/>
</g>
</svg>
