<svg width="40" height="40" viewBox="0 0 40 40" fill="none" xmlns="http://www.w3.org/2000/svg">
<rect width="40" height="40" fill="#DCE0E5"/>
<path d="M21.0536 9.80428L21.0535 9.80425C21.0431 9.78986 21.034 9.77724 21.0257 9.76595C21.015 9.76668 21.0032 9.76749 20.9902 9.7684M21.0536 9.80428L20.986 9.70779L20.9555 9.2696L20.9859 9.70777C20.9859 9.70774 20.9859 9.70771 20.9858 9.70768C20.976 9.6998 20.9708 9.69422 20.9708 9.69415C20.9707 9.69413 20.971 9.69443 20.9716 9.69509C20.974 9.69784 20.9786 9.70325 20.9863 9.71314L20.9902 9.7684M21.0536 9.80428L21.7061 10.7046C21.7136 10.7171 21.7198 10.7287 21.725 10.7395C21.2776 10.9314 20.9022 11.2099 20.6391 11.6074L20.6391 11.6074C20.3822 11.9955 20.3101 12.3917 20.2757 12.5806L20.2743 12.5881L20.2743 12.5881C20.2639 12.6451 20.2561 12.6875 20.2499 12.72C20.1796 12.7469 20.0606 12.7693 19.8934 12.7302C19.6873 12.6821 19.3748 12.5319 18.9817 12.1164C18.976 12.1104 18.9703 12.1043 18.9646 12.0983C18.5685 11.6794 18.1322 11.2181 17.4943 10.9577C18.5093 10.2831 19.7034 9.8578 20.9902 9.7684M21.0536 9.80428L20.9863 9.71317L20.9902 9.7684" fill="#14181F" stroke="#14181F"/>
<path d="M20.8219 18.9324L20.8219 18.9323C21.0584 18.4565 21.4394 18.0907 21.9338 17.8621L21.9339 17.862C22.8151 17.4547 23.9694 17.5247 25.2452 17.78C25.2452 17.78 25.2452 17.78 25.2452 17.78L20.8219 18.9324ZM20.8219 18.9324C20.6002 19.3787 20.5416 19.8489 20.5416 20.2579M20.8219 18.9324L20.5416 20.2579M22.4807 13.8945L22.4807 13.8945C22.2694 14.3211 21.9288 14.664 21.4565 14.9137L22.4807 13.8945ZM22.4807 13.8945C22.6406 13.5718 22.6977 13.2429 22.7245 13.0881L22.7259 13.0802M22.4807 13.8945L22.7259 13.0802M22.7259 13.0802L22.7261 13.0788L22.7336 13.0364C22.7337 13.036 22.7337 13.0356 22.7338 13.0353C22.7343 13.0326 22.7348 13.0301 22.7352 13.0276C23.516 12.717 24.0362 12.088 24.1973 11.3293C24.275 10.9635 24.2625 10.6035 24.1856 10.2645C26.7872 11.3032 28.646 13.8064 28.7458 16.7552H28C26.8708 16.7552 26.1605 17.245 25.7324 17.5403L25.7254 17.5451L25.7251 17.5453L25.6916 17.5684L22.7259 13.0802ZM23.7476 9.82044L23.7126 9.83652M23.7476 9.82044L23.7481 9.8202L23.7126 9.83652M23.7476 9.82044L23.7126 9.83652M23.7476 9.82044L23.7126 9.83652M20.5416 20.2579C20.5416 20.9267 20.5324 21.0361 20.5137 21.1112M20.5416 20.2579L20.5137 21.1112M20.5137 21.1112C20.5014 21.1604 20.4851 21.2109 20.1911 21.7169M20.5137 21.1112L20.1911 21.7169M20.1911 21.7169C19.9818 22.077 19.7237 22.6223 19.7522 23.2632L20.1911 21.7169ZM19.9613 24.0957C16.6967 23.3899 14.25 20.4834 14.25 17.005C14.25 15.7158 14.5857 14.5065 15.174 13.4584C15.2051 13.403 15.2287 13.361 15.2498 13.3252C15.2686 13.2934 15.2819 13.2727 15.2917 13.2585C15.2919 13.2585 15.292 13.2585 15.2922 13.2585C15.3423 13.2532 15.4131 13.2526 15.5579 13.2526H16.457C16.5268 13.2585 16.5559 13.2684 16.6177 13.3115C16.7206 13.3831 16.8717 13.5245 17.1655 13.8352C18.4899 15.2353 20.131 15.6143 21.4564 14.9137L19.9613 24.0957ZM19.9613 24.0957C19.8391 23.843 19.7655 23.5648 19.7522 23.2633L19.9613 24.0957Z" fill="#14181F" stroke="#14181F"/>
<path d="M23.0706 24.3551C23.1855 24.4513 23.2429 24.4994 23.3155 24.515C23.3881 24.5307 23.4566 24.5115 23.5937 24.4731C26.0623 23.7817 28.033 21.8979 28.8464 19.4815C28.9531 19.1645 29.0065 19.0059 28.9167 18.881C28.8269 18.756 28.6504 18.756 28.2974 18.756H28C27.5002 18.756 27.2266 18.9405 26.8253 19.2167L26.811 19.2266C26.396 19.5123 25.79 19.9295 24.8529 19.742C23.618 19.4949 23.0275 19.5607 22.7729 19.6783C22.678 19.7223 22.6399 19.7685 22.613 19.8227C22.5773 19.8947 22.5416 20.0263 22.5416 20.2579L22.5417 20.3451C22.5419 20.8563 22.5421 21.2426 22.4544 21.5949C22.3631 21.9616 22.1816 22.2732 21.9582 22.657L21.92 22.7225C21.775 22.9722 21.7473 23.1103 21.7502 23.1747C21.7512 23.1964 21.7555 23.2149 21.7705 23.2406C21.7879 23.2703 21.8313 23.3284 21.9359 23.406C21.9479 23.4149 21.9595 23.4241 21.9709 23.4336L23.0706 24.3551Z" fill="#14181F"/>
<path fill-rule="evenodd" clip-rule="evenodd" d="M15.217 9.30292C15.602 9.6989 15.5931 10.332 15.1971 10.717C13.5304 12.3373 12.5 14.5905 12.5 17.0825C12.5 21.9997 16.5216 26 21.5 26C23.9559 26 26.1791 25.0267 27.8029 23.448C28.1989 23.063 28.832 23.072 29.217 23.4679C29.602 23.8639 29.5931 24.497 29.1971 24.882C27.2134 26.8106 24.495 28 21.5 28V29H22.5C23.0523 29 23.5 29.4477 23.5 30C23.5 30.5523 23.0523 31 22.5 31H18.5C17.9477 31 17.5 30.5523 17.5 30C17.5 29.4477 17.9477 29 18.5 29H19.5V27.8199C14.3849 26.8869 10.5 22.4404 10.5 17.0825C10.5 14.0259 11.7668 11.2625 13.8029 9.28301C14.1989 8.89802 14.832 8.90694 15.217 9.30292Z" fill="#14181F"/>
</svg>
