<svg width="40" height="40" viewBox="0 0 40 40" fill="none" xmlns="http://www.w3.org/2000/svg">
<rect width="40" height="40" fill="#DCE0E5"/>
<path d="M11.249 13.2213V13.2358V22.0564C11.249 23.9075 11.25 25.324 11.3977 26.4224C11.5479 27.5395 11.8539 28.3653 12.4938 29.0052C12.4938 29.0052 12.4938 29.0052 12.4938 29.0053M11.249 13.2213L15.01 30.5969C13.8376 30.4392 12.8886 30.1071 12.1403 29.3588L12.4938 29.0053M11.249 13.2213L11.2482 13.2068M11.249 13.2213L11.2482 13.2068M12.4938 29.0053C13.1337 29.6451 13.9595 29.9511 15.0766 30.1014L12.4938 29.0053ZM11.2482 13.2068C11.2442 13.1384 11.2422 13.0695 11.2422 13C11.2422 11.067 12.8092 9.5 14.7422 9.5H26.7422C27.0184 9.5 27.2422 9.72386 27.2422 10C27.2422 10.2761 27.0184 10.5 26.7422 10.5H14.7422C13.3615 10.5 12.2422 11.6193 12.2422 13C12.2422 14.3807 13.3615 15.5 14.7422 15.5H24.499H24.999V15V14.5C24.999 13.9478 24.5514 13.5 23.999 13.5H15.499C15.2229 13.5 14.999 13.2761 14.999 13C14.999 12.7239 15.2229 12.5 15.499 12.5H23.999C25.1036 12.5 25.999 13.3954 25.999 14.5V15.25V15.75H26.499C27.7417 15.75 28.749 16.7574 28.749 18V22.0564C28.749 23.9075 28.7481 25.324 28.6004 26.4224L28.6004 26.4224M11.2482 13.2068L28.6004 26.4224M28.6004 26.4224C28.4502 27.5394 28.1441 28.3653 27.5043 29.0052M28.6004 26.4224L27.5043 29.0052M27.5043 29.0052C27.5043 29.0052 27.5042 29.0053 27.5042 29.0053C26.8643 29.6451 26.0386 29.9511 24.9213 30.1014C23.823 30.249 22.4065 30.25 20.5555 30.25H19.4426C17.5916 30.25 16.175 30.249 15.0767 30.1014L27.5043 29.0052ZM18.2578 19.8899L18.2578 19.8899L15.8503 25.5076C15.5783 26.1422 15.8723 26.877 16.5068 27.149L16.5069 27.149C17.1413 27.4208 17.8762 27.127 18.1481 26.4924C18.1481 26.4923 18.1482 26.4923 18.1482 26.4923L18.6806 25.25H21.3178L21.8503 26.4923C21.8503 26.4923 21.8503 26.4923 21.8503 26.4924C22.1223 27.1271 22.8571 27.4207 23.4916 27.149L23.4917 27.149C24.1262 26.8769 24.42 26.1421 24.1482 25.5077L24.1482 25.5076L21.7406 19.8899L21.7406 19.8899C21.4365 19.1805 20.7383 18.75 19.9992 18.75C19.2601 18.75 18.5619 19.1805 18.2578 19.8899ZM19.752 22.75L19.9992 22.1732L20.2464 22.75H19.752Z" fill="#14181F" stroke="#14181F"/>
</svg>
