<svg width="40" height="40" viewBox="0 0 40 40" fill="none" xmlns="http://www.w3.org/2000/svg">
<rect width="40" height="40" fill="#DCE0E5"/>
<path d="M23.25 16.25H23.75H25.75C26.3595 16.25 26.8143 16.2824 27.1586 16.3581C27.1586 16.3581 27.1586 16.3581 27.1586 16.3581L27.0513 16.8464C27.3307 16.9078 27.431 16.9837 27.4736 17.0264L23.25 16.25ZM23.25 16.25V16.75V28.75V29.25H23.75H27.75H28.25V28.75V18.75C28.25 18.1404 28.2175 17.6857 28.142 17.3415L28.1419 17.3414C28.0674 17.0023 27.9581 16.8035 27.8269 16.6725L23.25 16.25ZM22.75 15.25C22.4738 15.25 22.25 15.4739 22.25 15.75V29.75C22.25 30.0262 22.4738 30.25 22.75 30.25H28.75C29.0262 30.25 29.25 30.0262 29.25 29.75V18.75C29.25 18.1189 29.2177 17.578 29.1186 17.1269C29.0183 16.67 28.8427 16.2741 28.5344 15.9657C28.5344 15.9657 28.5344 15.9657 28.5343 15.9657M22.75 15.25L28.5343 15.9657M22.75 15.25H25.75C26.3811 15.25 26.922 15.2823 27.3731 15.3814C27.83 15.4817 28.2259 15.6573 28.5343 15.9657M22.75 15.25L28.5343 15.9657" fill="#14181F" stroke="#14181F"/>
<path d="M15.2362 22.7978L15.2362 22.7978C15.5917 22.75 16.0156 22.75 16.4288 22.75L16.4553 22.75H17.5448L17.5713 22.75C17.9844 22.75 18.4083 22.75 18.7638 22.7978L18.6972 23.2933L18.7638 22.7978C19.1743 22.8529 19.6733 22.9913 20.0909 23.409C20.0909 23.409 20.091 23.4091 20.091 23.4091M15.2362 22.7978L21.5695 9.87555C21.9968 9.96943 22.3435 10.1284 22.6075 10.3925C22.8716 10.6566 23.0306 11.0032 23.1244 11.4305L23.1245 11.4306C23.2177 11.8549 23.25 12.3742 23.25 13V30C23.25 30.1381 23.1381 30.25 23 30.25H20.75V25.9554V25.9553L20.75 25.9336C20.7501 25.5188 20.7502 25.0931 20.7022 24.7362L20.2067 24.8028M15.2362 22.7978C14.8257 22.853 14.3266 22.9913 13.909 23.4091M15.2362 22.7978L13.909 23.4091M20.091 23.4091L19.7374 23.7626C20.0465 24.0716 20.1589 24.4473 20.2067 24.8028M20.091 23.4091C20.5087 23.8267 20.6471 24.3257 20.7022 24.7362L20.2067 24.8028M20.091 23.4091L20.2067 24.8028M13.909 23.4091C13.4914 23.8267 13.353 24.3257 13.2978 24.7362C13.2499 25.0925 13.2499 25.5173 13.25 25.9315L13.25 25.9553V25.9554L13.25 30.25H11C10.8619 30.25 10.75 30.1381 10.75 30V13C10.75 12.3742 10.7823 11.8549 10.8755 11.4305L10.8755 11.4305C10.9694 11.0032 11.1284 10.6566 11.3925 10.3925C11.6566 10.1284 12.0032 9.96942 12.4305 9.87554L12.4305 9.87554C12.8549 9.78231 13.3742 9.75 14 9.75H20C20.6258 9.75 21.1451 9.78231 21.5695 9.87554L13.909 23.4091ZM16 12.75C15.3096 12.75 14.75 13.3096 14.75 14C14.75 14.6904 15.3096 15.25 16 15.25H18C18.6903 15.25 19.25 14.6904 19.25 14C19.25 13.3096 18.6903 12.75 18 12.75H16ZM16 15.75C15.3096 15.75 14.75 16.3096 14.75 17C14.75 17.6904 15.3096 18.25 16 18.25H18C18.6903 18.25 19.25 17.6904 19.25 17C19.25 16.3096 18.6903 15.75 18 15.75H16ZM16 18.75C15.3096 18.75 14.75 19.3097 14.75 20C14.75 20.6903 15.3096 21.25 16 21.25H18C18.6903 21.25 19.25 20.6903 19.25 20C19.25 19.3097 18.6903 18.75 18 18.75H16Z" fill="#14181F" stroke="#14181F"/>
<path d="M18.35 30.75C18.5386 30.75 18.6329 30.75 18.6914 30.6914C18.75 30.6328 18.75 30.5386 18.75 30.35V26C18.75 25.5074 18.7484 25.2134 18.7201 25.0027C18.696 24.8239 18.6764 24.804 18.4973 24.7799C18.2866 24.7516 17.9926 24.75 17.5 24.75H16.5C16.0074 24.75 15.7134 24.7516 15.5027 24.7799C15.3315 24.8029 15.303 24.8313 15.2799 25.0027C15.2516 25.2134 15.25 25.5074 15.25 26V30.35C15.25 30.5386 15.25 30.6328 15.3086 30.6914C15.3671 30.75 15.4614 30.75 15.65 30.75H18.35Z" fill="#14181F"/>
</svg>
