<svg width="40" height="40" viewBox="0 0 40 40" fill="none" xmlns="http://www.w3.org/2000/svg">
<rect width="40" height="40" fill="#DCE0E5"/>
<path d="M20 9.5C20.2762 9.5 20.5 9.72386 20.5 10V12C20.5 12.2761 20.2762 12.5 20 12.5C19.7238 12.5 19.5 12.2761 19.5 12V10C19.5 9.72386 19.7238 9.5 20 9.5Z" fill="#14181F" stroke="#14181F"/>
<path d="M16.5 15C16.5 13.067 18.067 11.5 20 11.5C21.933 11.5 23.5 13.067 23.5 15C23.5 16.933 21.933 18.5 20 18.5C18.067 18.5 16.5 16.933 16.5 15Z" fill="#14181F" stroke="#14181F"/>
<path d="M16.6386 19.3528C16.5312 19.2697 16.3718 19.3077 16.3196 19.4331L12.0772 29.6148C11.8648 30.1246 12.1058 30.7101 12.6157 30.9225C13.1255 31.1349 13.7109 30.8938 13.9233 30.384L18.0903 20.3834C18.1345 20.2773 18.0803 20.1563 17.9736 20.114C17.4914 19.9227 17.0426 19.6653 16.6386 19.3528Z" fill="#14181F"/>
<path d="M22.0272 20.114C21.9204 20.1563 21.8663 20.2773 21.9104 20.3834L26.0774 30.384C26.2898 30.8938 26.8753 31.1349 27.3851 30.9225C27.8949 30.7101 28.136 30.1246 27.9235 29.6148L23.6812 19.4331C23.6289 19.3078 23.4695 19.2698 23.3621 19.3528C22.9581 19.6653 22.5094 19.9227 22.0272 20.114Z" fill="#14181F"/>
<path fill-rule="evenodd" clip-rule="evenodd" d="M10.4503 20.1648C10.9116 19.8612 11.5317 19.989 11.8354 20.4503C13.6598 23.2219 16.6488 25.0001 20.0001 25.0001C23.3514 25.0001 26.3404 23.2219 28.1648 20.4503C28.4685 19.989 29.0886 19.8612 29.5499 20.1648C30.0113 20.4685 30.1391 21.0886 29.8354 21.5499C27.6783 24.8268 24.0895 27.0001 20.0001 27.0001C15.9108 27.0001 12.3219 24.8268 10.1648 21.5499C9.86117 21.0886 9.98897 20.4685 10.4503 20.1648Z" fill="#14181F"/>
<path fill-rule="evenodd" clip-rule="evenodd" d="M20 24C20.5523 24 21 24.4477 21 25V27C21 27.5523 20.5523 28 20 28C19.4477 28 19 27.5523 19 27V25C19 24.4477 19.4477 24 20 24Z" fill="#14181F"/>
</svg>
