<svg width="40" height="40" viewBox="0 0 40 40" fill="none" xmlns="http://www.w3.org/2000/svg">
<rect width="40" height="40" fill="#DCE0E5"/>
<path d="M24.3608 18.7385L24.3608 18.7385C23.8031 16.8791 22.079 15.5234 20.037 15.5234C19.2638 15.5234 18.5347 15.7183 17.8974 16.0619L17.8974 16.0619C17.8794 16.0716 17.8618 16.0737 17.8504 16.0725C17.8452 16.0719 17.8425 16.0708 17.8419 16.0705C17.8419 16.0705 17.8418 16.0705 17.8418 16.0705L13.7023 11.9309C15.4485 10.5643 17.6466 9.75 20.0363 9.75C25.2933 9.75 29.6299 13.6941 30.2473 18.7843H24.3944C24.3944 18.7843 24.3943 18.7843 24.3943 18.7843C24.3937 18.7841 24.391 18.7829 24.3869 18.7796C24.3778 18.7723 24.3668 18.7582 24.3608 18.7385ZM13.6819 11.9469L13.6819 11.9469L13.6819 11.9469ZM24.3941 18.7843C24.3941 18.7843 24.3941 18.7843 24.3941 18.7843L24.3941 18.7843ZM18.7385 24.3608L18.7385 24.3608C18.7582 24.3668 18.7723 24.3778 18.7796 24.3869C18.7829 24.391 18.7841 24.3937 18.7843 24.3943C18.7843 24.3943 18.7843 24.3944 18.7843 24.3944V30.2473C13.6941 29.6299 9.75 25.2933 9.75 20.0363C9.75 17.6466 10.5643 15.4485 11.9309 13.7023L16.0705 17.8418C16.0705 17.8418 16.0705 17.8419 16.0705 17.8419C16.0708 17.8425 16.0719 17.8452 16.0725 17.8504C16.0737 17.8618 16.0716 17.8794 16.0619 17.8974L16.0619 17.8974C15.7183 18.5347 15.5234 19.2638 15.5234 20.037C15.5234 22.079 16.8791 23.8031 18.7385 24.3608ZM21.3352 24.3608L21.3352 24.3608C22.7844 23.9262 23.9262 22.7844 24.3608 21.3352L24.3608 21.3352C24.3668 21.3155 24.3778 21.3014 24.3869 21.2941C24.391 21.2908 24.3937 21.2896 24.3943 21.2894C24.3943 21.2894 24.3944 21.2894 24.3944 21.2894H30.2471C29.6792 25.9683 25.9683 29.6793 21.2894 30.2471V24.3944C21.2894 24.3944 21.2894 24.3943 21.2894 24.3943C21.2896 24.3937 21.2908 24.391 21.2941 24.3869C21.3014 24.3778 21.3155 24.3668 21.3352 24.3608ZM30.2502 21.2638L30.2502 21.2638C30.2502 21.2638 30.2502 21.2638 30.2502 21.2638ZM21.2894 24.3941C21.2894 24.3941 21.2894 24.3941 21.2894 24.3941L21.2894 24.3941Z" fill="#14181F" stroke="#14181F"/>
</svg>
