<svg width="40" height="40" viewBox="0 0 40 40" fill="none" xmlns="http://www.w3.org/2000/svg">
<rect width="40" height="40" fill="#DCE0E5"/>
<path d="M20.1575 10H20.1574H19.8426H19.8425C19.2753 9.99994 18.8021 10.0008 18.4171 10.0511C18.0015 10.1054 17.6381 10.2224 17.3159 10.4882L17.3159 10.4882C16.999 10.7496 16.7983 11.0924 16.6307 11.5047L16.6307 11.5047C16.4706 11.8988 16.3226 12.4051 16.1406 13.0304L16.139 13.0358L16.139 13.0358L16.1234 13.0872L17.0674 13.3756L17.0746 13.3518C17.2682 12.6872 17.4036 12.2241 17.5441 11.8784L17.5441 11.8784C17.6815 11.5403 17.8039 11.367 17.942 11.2529L17.9424 11.2526C18.0747 11.1435 18.2404 11.0723 18.5445 11.0326L20.1575 10ZM20.1575 10C20.7247 9.99994 21.1979 10.0008 21.5829 10.0511C21.9985 10.1054 22.362 10.2224 22.6842 10.4882L22.6842 10.4882M20.1575 10L22.6842 10.4882M22.9326 13.3756L23.8766 13.0872L23.861 13.0358L23.8594 13.0304L23.8594 13.0304C23.6775 12.4052 23.5294 11.8989 23.3693 11.5047L22.9326 13.3756ZM22.9326 13.3756L22.9253 13.3518C22.7319 12.6872 22.5964 12.2241 22.4559 11.8784L22.4559 11.8784C22.3185 11.5402 22.1961 11.367 22.058 11.2529L22.0576 11.2526C21.9253 11.1435 21.7596 11.0723 21.4555 11.0326L22.9326 13.3756ZM22.6842 10.4882C23.001 10.7496 23.2017 11.0924 23.3693 11.5047L22.6842 10.4882ZM20.2662 10.9879C20.6372 10.9842 21.0537 10.98 21.4555 11.0325L20.2662 10.9879ZM20.2662 10.9879C20.1745 10.9889 20.0855 10.9897 20.0003 10.9897M20.2662 10.9879L20.0003 10.9897M20.0003 10.9897C19.9151 10.9897 19.8261 10.9889 19.7344 10.9879M20.0003 10.9897L19.7344 10.9879M19.7344 10.9879C19.3633 10.9842 18.9463 10.98 18.5445 11.0325L19.7344 10.9879ZM16.1675 11.3165L16.1771 11.3204L16.1675 11.3165Z" fill="#14181F" stroke="#14181F"/>
<mask id="path-2-inside-1_13012_269" fill="white">
<path d="M17.3686 23.1021C17.4245 23.1187 17.4524 23.127 17.4755 23.1415C17.4985 23.156 17.5198 23.1792 17.5623 23.2257C18.1657 23.8864 19.0342 24.3008 19.9995 24.3008C20.9647 24.3008 21.8331 23.8864 22.4366 23.2258C22.479 23.1793 22.5003 23.1561 22.5233 23.1416C22.5464 23.1271 22.5744 23.1188 22.6302 23.1022C22.9064 23.0201 23.207 22.9274 23.5298 22.8278L27.7138 21.5375C28.1826 21.3929 28.6468 21.2069 29.0852 20.9619C29.1638 20.9179 29.2031 20.8959 29.2289 20.8895C29.332 20.8637 29.4282 20.9144 29.4651 21.0141C29.4743 21.039 29.478 21.0806 29.4856 21.1638C29.657 23.0612 29.7927 24.5636 29.7372 25.7441C29.6801 26.9579 29.4178 27.9569 28.688 28.7611C27.9574 29.5661 26.9903 29.9205 25.7919 30.0879C24.6276 30.2506 23.1276 30.2506 21.2352 30.2506H18.7646C16.8722 30.2506 15.3722 30.2506 14.2079 30.0879C13.0095 29.9205 12.0424 29.5661 11.3118 28.7611C10.582 27.9569 10.3197 26.9579 10.2626 25.7441C10.2071 24.5636 10.3428 23.0612 10.5142 21.1638C10.5217 21.0809 10.5255 21.0395 10.5346 21.0147C10.5715 20.9148 10.6679 20.8639 10.7711 20.8899C10.7968 20.8963 10.8359 20.9182 10.9142 20.962C11.3525 21.207 11.8166 21.393 12.2853 21.5375L16.4694 22.8278C16.7919 22.9273 17.0925 23.02 17.3686 23.1021Z"/>
</mask>
<path d="M17.3686 23.1021C17.4245 23.1187 17.4524 23.127 17.4755 23.1415C17.4985 23.156 17.5198 23.1792 17.5623 23.2257C18.1657 23.8864 19.0342 24.3008 19.9995 24.3008C20.9647 24.3008 21.8331 23.8864 22.4366 23.2258C22.479 23.1793 22.5003 23.1561 22.5233 23.1416C22.5464 23.1271 22.5744 23.1188 22.6302 23.1022C22.9064 23.0201 23.207 22.9274 23.5298 22.8278L27.7138 21.5375C28.1826 21.3929 28.6468 21.2069 29.0852 20.9619C29.1638 20.9179 29.2031 20.8959 29.2289 20.8895C29.332 20.8637 29.4282 20.9144 29.4651 21.0141C29.4743 21.039 29.478 21.0806 29.4856 21.1638C29.657 23.0612 29.7927 24.5636 29.7372 25.7441C29.6801 26.9579 29.4178 27.9569 28.688 28.7611C27.9574 29.5661 26.9903 29.9205 25.7919 30.0879C24.6276 30.2506 23.1276 30.2506 21.2352 30.2506H18.7646C16.8722 30.2506 15.3722 30.2506 14.2079 30.0879C13.0095 29.9205 12.0424 29.5661 11.3118 28.7611C10.582 27.9569 10.3197 26.9579 10.2626 25.7441C10.2071 24.5636 10.3428 23.0612 10.5142 21.1638C10.5217 21.0809 10.5255 21.0395 10.5346 21.0147C10.5715 20.9148 10.6679 20.8639 10.7711 20.8899C10.7968 20.8963 10.8359 20.9182 10.9142 20.962C11.3525 21.207 11.8166 21.393 12.2853 21.5375L16.4694 22.8278C16.7919 22.9273 17.0925 23.02 17.3686 23.1021Z" fill="#14181F"/>
<path d="M17.3686 23.1021L17.0835 24.0606L17.0838 24.0607L17.3686 23.1021ZM17.5623 23.2257L18.3007 22.5513L18.3006 22.5512L17.5623 23.2257ZM22.4366 23.2258L23.1749 23.9003L23.1755 23.8996L22.4366 23.2258ZM22.5233 23.1416L21.9917 22.2946L21.99 22.2957L22.5233 23.1416ZM22.6302 23.1022L22.3453 22.1436L22.3451 22.1437L22.6302 23.1022ZM23.5298 22.8278L23.2351 21.8722L23.235 21.8722L23.5298 22.8278ZM27.7138 21.5375L28.0085 22.4931L28.0085 22.4931L27.7138 21.5375ZM29.0852 20.9619L29.573 21.8348L29.5737 21.8345L29.0852 20.9619ZM29.2289 20.8895L29.4697 21.8601L29.4717 21.8596L29.2289 20.8895ZM29.4651 21.0141L30.4031 20.6675L30.4029 20.667L29.4651 21.0141ZM29.4856 21.1638L30.4815 21.0738L30.4815 21.0728L29.4856 21.1638ZM29.7372 25.7441L30.7361 25.7911L30.7361 25.791L29.7372 25.7441ZM28.688 28.7611L29.4285 29.4331L29.4285 29.4331L28.688 28.7611ZM25.7919 30.0879L25.6536 29.0975L25.6535 29.0975L25.7919 30.0879ZM14.2079 30.0879L14.3463 29.0975L14.3462 29.0975L14.2079 30.0879ZM11.3118 28.7611L12.0524 28.0891L12.0524 28.0891L11.3118 28.7611ZM10.2626 25.7441L11.2615 25.6971L11.2615 25.6971L10.2626 25.7441ZM10.5142 21.1638L11.5102 21.2538L11.5102 21.2536L10.5142 21.1638ZM10.5346 21.0147L11.4728 21.3608L11.4729 21.3606L10.5346 21.0147ZM10.7711 20.8899L10.5269 21.8596L10.5291 21.8602L10.7711 20.8899ZM10.9142 20.962L10.426 21.8347L10.4263 21.8349L10.9142 20.962ZM12.2853 21.5375L12.58 20.5819L12.5799 20.5819L12.2853 21.5375ZM16.4694 22.8278L16.7642 21.8722L16.7641 21.8722L16.4694 22.8278ZM17.0838 24.0607C17.0991 24.0652 17.1061 24.0673 17.1111 24.0689C17.116 24.0704 17.1108 24.0688 17.1008 24.0653C17.0789 24.0576 17.017 24.0344 16.9435 23.9882L18.0074 22.2947C17.9109 22.2341 17.8234 22.1995 17.7679 22.1798C17.7213 22.1634 17.6719 22.149 17.6534 22.1435L17.0838 24.0607ZM16.9435 23.9882C16.8669 23.9401 16.8186 23.8927 16.8066 23.8808C16.8003 23.8745 16.7978 23.8717 16.8022 23.8764C16.8066 23.8812 16.8125 23.8876 16.824 23.9001L18.3006 22.5512C18.2855 22.5347 18.2511 22.4966 18.2166 22.4624C18.1776 22.4236 18.1071 22.3573 18.0074 22.2947L16.9435 23.9882ZM16.8239 23.9001C17.6088 24.7595 18.7417 25.3008 19.9995 25.3008V23.3008C19.3267 23.3008 18.7226 23.0132 18.3007 22.5513L16.8239 23.9001ZM19.9995 25.3008C21.2572 25.3008 22.3899 24.7595 23.1749 23.9003L21.6983 22.5513C21.2763 23.0133 20.6722 23.3008 19.9995 23.3008V25.3008ZM23.1755 23.8996C23.1868 23.8872 23.1926 23.8808 23.1969 23.8762C23.2012 23.8716 23.1987 23.8745 23.1924 23.8808C23.1804 23.8927 23.1325 23.9397 23.0566 23.9875L21.99 22.2957C21.8245 22.4 21.6985 22.5511 21.6977 22.552L23.1755 23.8996ZM23.0549 23.9885C22.9814 24.0347 22.9194 24.0578 22.8979 24.0655C22.8879 24.069 22.8828 24.0705 22.8878 24.0689C22.8929 24.0673 22.8999 24.0653 22.9153 24.0607L22.3451 22.1437C22.3269 22.1491 22.2775 22.1635 22.2311 22.1799C22.1759 22.1994 22.0883 22.2339 21.9917 22.2946L23.0549 23.9885ZM22.9151 24.0607C23.1972 23.9769 23.5029 23.8826 23.8246 23.7833L23.235 21.8722C22.9111 21.9722 22.6156 22.0633 22.3453 22.1436L22.9151 24.0607ZM23.8245 23.7834L28.0085 22.4931L27.4191 20.5819L23.2351 21.8722L23.8245 23.7834ZM28.0085 22.4931C28.5294 22.3324 29.061 22.1209 29.573 21.8348L28.5974 20.0889C28.2326 20.2928 27.8357 20.4534 27.4191 20.5819L28.0085 22.4931ZM29.5737 21.8345C29.5941 21.823 29.6083 21.8151 29.6201 21.8086C29.6321 21.8019 29.6359 21.8 29.6353 21.8003C29.6346 21.8007 29.6312 21.8024 29.6258 21.805C29.6205 21.8076 29.6115 21.8118 29.5996 21.8168C29.5784 21.8259 29.5325 21.8445 29.4697 21.8601L28.9881 19.9189C28.8531 19.9524 28.7478 20.0077 28.7184 20.0229C28.6767 20.0444 28.6296 20.0709 28.5967 20.0893L29.5737 21.8345ZM29.4717 21.8596C29.2972 21.9032 29.093 21.8882 28.9053 21.7892C28.7176 21.6902 28.5898 21.5301 28.5273 21.3612L30.4029 20.667C30.1888 20.0885 29.5836 19.7699 28.9861 19.9194L29.4717 21.8596ZM28.5271 21.3607C28.5062 21.3042 28.4958 21.2586 28.4909 21.2345C28.486 21.2101 28.484 21.1938 28.4839 21.1926C28.4836 21.1906 28.484 21.1935 28.4852 21.2059C28.4864 21.2181 28.4877 21.2327 28.4897 21.2547L30.4815 21.0728C30.4784 21.0394 30.4738 20.987 30.468 20.9416C30.4635 20.9054 30.4496 20.7932 30.4031 20.6675L28.5271 21.3607ZM28.4897 21.2537C28.6635 23.1787 28.7898 24.6012 28.7383 25.6971L30.7361 25.791C30.7956 24.526 30.6505 22.9437 30.4815 21.0738L28.4897 21.2537ZM28.7383 25.6971C28.6865 26.7982 28.4563 27.5284 27.9475 28.0891L29.4285 29.4331C30.3793 28.3854 30.6737 27.1175 30.7361 25.7911L28.7383 25.6971ZM27.9475 28.089C27.4388 28.6495 26.7377 28.946 25.6536 29.0975L25.9302 31.0783C27.2429 30.8949 28.476 30.4827 29.4285 29.4331L27.9475 28.089ZM25.6535 29.0975C24.5741 29.2483 23.1556 29.2506 21.2352 29.2506V31.2506C23.0996 31.2506 24.6811 31.2528 25.9303 31.0783L25.6535 29.0975ZM21.2352 29.2506H18.7646V31.2506H21.2352V29.2506ZM18.7646 29.2506C16.8442 29.2506 15.4256 29.2483 14.3463 29.0975L14.0695 31.0783C15.3187 31.2528 16.9002 31.2506 18.7646 31.2506V29.2506ZM14.3462 29.0975C13.2621 28.946 12.561 28.6495 12.0524 28.0891L10.5713 29.4331C11.5238 30.4827 12.757 30.8949 14.0695 31.0783L14.3462 29.0975ZM12.0524 28.0891C11.5435 27.5284 11.3133 26.7982 11.2615 25.6971L9.26372 25.7911C9.32612 27.1175 9.62053 28.3854 10.5713 29.4331L12.0524 28.0891ZM11.2615 25.6971C11.21 24.6012 11.3363 23.1787 11.5102 21.2538L9.51831 21.0738C9.34937 22.9436 9.2042 24.526 9.26372 25.7911L11.2615 25.6971ZM11.5102 21.2536C11.5122 21.232 11.5135 21.2175 11.5146 21.2056C11.5158 21.1936 11.5162 21.1909 11.5159 21.1931C11.5157 21.1946 11.5137 21.211 11.5087 21.2353C11.5038 21.2595 11.4935 21.3048 11.4728 21.3608L9.59645 20.6685C9.55032 20.7936 9.5364 20.905 9.53174 20.9418C9.52592 20.9877 9.52135 21.04 9.5183 21.0739L11.5102 21.2536ZM11.4729 21.3606C11.4105 21.5298 11.2827 21.6903 11.0947 21.7894C10.9068 21.8886 10.7021 21.9037 10.5269 21.8596L11.0153 19.9202C10.4161 19.7692 9.80987 20.0896 9.59636 20.6688L11.4729 21.3606ZM10.5291 21.8602C10.4667 21.8446 10.421 21.8261 10.4 21.8171C10.3882 21.8121 10.3793 21.8079 10.374 21.8053C10.3686 21.8027 10.3653 21.801 10.3646 21.8007C10.364 21.8004 10.3678 21.8023 10.3798 21.8089C10.3915 21.8154 10.4057 21.8233 10.426 21.8347L11.4024 20.0892C11.3697 20.0709 11.3227 20.0445 11.2813 20.0231C11.2521 20.0081 11.1474 19.9531 11.0131 19.9196L10.5291 21.8602ZM10.4263 21.8349C10.9382 22.121 11.4698 22.3325 11.9907 22.4931L12.5799 20.5819C12.1635 20.4535 11.7668 20.2929 11.4021 20.0891L10.4263 21.8349ZM11.9906 22.4931L16.1747 23.7834L16.7641 21.8722L12.58 20.5819L11.9906 22.4931ZM16.1746 23.7833C16.496 23.8825 16.8017 23.9768 17.0835 24.0606L17.6536 22.1436C17.3834 22.0632 17.0879 21.9721 16.7642 21.8722L16.1746 23.7833Z" fill="#14181F" mask="url(#path-2-inside-1_13012_269)"/>
<path d="M11.9019 13.3394C12.2737 13.2496 12.7136 13.2498 13.3251 13.25H26.6736C27.2851 13.2498 27.725 13.2496 28.0968 13.3394C29.1427 13.5921 30.005 14.3726 30.2121 15.4256C30.2849 15.7961 30.2363 16.2172 30.1773 16.7274L30.1655 16.8304L30.165 16.8351C30.0724 17.6439 29.8037 18.3464 29.2897 18.9167C28.7828 19.479 28.0938 19.8498 27.2716 20.1034L23.5709 21.2446C23.4428 21.2841 23.3787 21.3039 23.338 21.2735C23.2973 21.2432 23.298 21.173 23.2993 21.0326C23.2994 21.0218 23.2995 21.011 23.2995 21.0002V20.3335V20.3238C23.3005 20.016 23.3014 19.7045 23.2211 19.4049C23.0084 18.6112 22.3885 17.9912 21.5948 17.7785C21.2951 17.6982 20.9836 17.6992 20.6758 17.7001L20.6662 17.7001H19.3328L19.3232 17.7001C19.0153 17.6992 18.7039 17.6982 18.4042 17.7785C17.6105 17.9912 16.9905 18.6112 16.7778 19.4049C16.6975 19.7045 16.6985 20.016 16.6994 20.3238L16.6995 20.3335V21.0002C16.6995 21.011 16.6995 21.0219 16.6996 21.0327C16.701 21.1731 16.7016 21.2433 16.6609 21.2736C16.6202 21.304 16.5562 21.2842 16.4281 21.2447L12.7271 20.1034C11.9049 19.8498 11.2158 19.479 10.709 18.9167C10.195 18.3464 9.92631 17.6438 9.83376 16.8351L9.82136 16.7274C9.76242 16.2173 9.71378 15.7962 9.78664 15.4256C9.99369 14.3726 10.856 13.5921 11.9019 13.3394Z" fill="#14181F"/>
<path d="M18 20.3333C18 20.0233 18 19.8683 18.0341 19.7412C18.1265 19.3961 18.3961 19.1265 18.7412 19.0341C18.8683 19 19.0233 19 19.3333 19H20.6667C20.9767 19 21.1317 19 21.2588 19.0341C21.6039 19.1265 21.8735 19.3961 21.9659 19.7412C22 19.8683 22 20.0233 22 20.3333V21C22 22.1046 21.1046 23 20 23C18.8954 23 18 22.1046 18 21V20.3333Z" fill="#14181F"/>
</svg>
