<svg width="40" height="40" viewBox="0 0 40 40" fill="none" xmlns="http://www.w3.org/2000/svg">
<rect width="40" height="40" fill="#DCE0E5"/>
<path d="M9.75 23.0685C9.75 21.4699 10.2717 19.9944 11.1546 18.8013C11.3074 24.2797 15.7206 28.6928 21.199 28.8456C20.0059 29.7285 18.5303 30.2502 16.9317 30.2502C12.9654 30.2502 9.75 27.0349 9.75 23.0685ZM11.5207 17.7583L11.5207 17.7583L11.5207 17.7583Z" fill="#14181F" stroke="#14181F"/>
<path d="M23.8953 16.0929L24.3372 15.8589L23.8953 16.0929C24.2183 16.703 24.9748 16.9357 25.5849 16.6127C26.1951 16.2897 26.4277 15.5332 26.1048 14.9231L26.1047 14.9231C25.4472 13.6813 24.1892 12.7502 22.6568 12.7502C20.4185 12.7502 18.8307 14.6665 18.6841 16.7905C18.1467 16.9304 17.75 17.419 17.75 18.0002C17.75 18.5816 18.1467 19.0701 18.6841 19.21C18.8307 21.334 20.4185 23.2502 22.6568 23.2502C24.1892 23.2502 25.4472 22.3193 26.1047 21.0774C26.4278 20.4673 26.1951 19.7108 25.5849 19.3878C24.9748 19.0649 24.2183 19.2974 23.8953 19.9077C23.5972 20.4706 23.1153 20.7502 22.6568 20.7502C22.0511 20.7502 21.344 20.2056 21.1996 19.2502H22.9231C23.6134 19.2502 24.1731 18.6907 24.1731 18.0002C24.1731 17.3099 23.6134 16.7502 22.9231 16.7502H21.1996C21.3441 15.7949 22.0511 15.2502 22.6568 15.2502C23.1153 15.2502 23.5972 15.5298 23.8953 16.0929ZM13.75 18.0002C13.75 13.4439 17.4437 9.75024 22 9.75024C26.5563 9.75024 30.25 13.4439 30.25 18.0002C30.25 22.5566 26.5563 26.2502 22 26.2502C17.4437 26.2502 13.75 22.5566 13.75 18.0002Z" fill="#14181F" stroke="#14181F"/>
</svg>
