<svg width="40" height="40" viewBox="0 0 40 40" fill="none" xmlns="http://www.w3.org/2000/svg">
<rect width="40" height="40" fill="#DCE0E5"/>
<path d="M19.5 14C19.5 13.7217 19.724 13.5 19.9955 13.5H20.0045C20.276 13.5 20.5 13.7217 20.5 14C20.5 14.2783 20.276 14.5 20.0045 14.5H19.9955C19.724 14.5 19.5 14.2783 19.5 14Z" fill="#14181F" stroke="#14181F"/>
<path d="M13.9888 10.3277L13.9888 10.3277C13.3884 10.4084 12.8834 10.5811 12.4822 10.9822C12.4822 10.9822 12.4822 10.9822 12.4822 10.9822M13.9888 10.3277L11.25 14.6842C11.25 13.7977 11.2499 13.0339 11.3322 12.4222C11.4203 11.7667 11.619 11.1384 12.1287 10.6287L12.4822 10.9822M13.9888 10.3277C14.5599 10.2509 15.2856 10.25 16.1841 10.25H16.1842H23.8156H23.8156C24.7142 10.25 25.4398 10.2509 26.0109 10.3277L26.0109 10.3277C26.6113 10.4084 27.1164 10.5811 27.5175 10.9822L13.9888 10.3277ZM12.4822 10.9822C12.0811 11.3834 11.9084 11.8884 11.8277 12.4888L11.8277 12.4888C11.7509 13.0599 11.75 13.7856 11.75 14.6841V14.6842V22.25V22.2511L11.7499 22.2924L11.7499 22.3039L11.7498 22.3039C11.7487 22.3465 11.7452 22.4051 11.7289 22.4722C11.7127 22.5394 11.689 22.5931 11.6704 22.6315L11.6658 22.6412L11.6657 22.6411L11.6556 22.6608L11.6549 22.6624L11.2789 23.3939L11.2739 23.4036L11.2738 23.4035C10.5531 24.7336 10.091 25.7522 9.88166 26.5724L9.39732 26.4487L9.88166 26.5724C9.66977 27.4024 9.71069 28.054 10.0248 28.6244C10.3541 29.2226 10.9494 29.4932 11.7756 29.6225M12.4822 10.9822L11.7756 29.6225M11.7756 29.6225C11.7756 29.6225 11.7756 29.6225 11.7756 29.6225L11.6983 30.1165M11.7756 29.6225L10.8342 23.1653C10.1102 24.5014 9.62267 25.5653 9.39719 26.4487C9.16515 27.3577 9.1925 28.1495 9.58675 28.8656C10.0275 29.6661 10.815 29.9782 11.6983 30.1165M11.7756 29.6225L11.6983 30.1165M11.7756 29.6225C12.5817 29.7487 13.6741 29.75 15.0868 29.75H19.9999H24.913C26.3258 29.75 27.4181 29.7487 28.2242 29.6225M11.6983 30.1165C12.5512 30.25 13.6886 30.25 15.0836 30.25H15.0868H19.9999H24.913H24.9162C26.3112 30.25 27.4485 30.25 28.3015 30.1165M28.3015 30.1165L28.2242 29.6225M28.3015 30.1165C29.1848 29.9782 29.9723 29.6661 30.413 28.8656L30.6026 26.4487L30.1181 26.5724C30.33 27.4024 30.2891 28.054 29.975 28.6244L29.975 28.6245C29.6457 29.2226 29.0504 29.4932 28.2242 29.6225M28.3015 30.1165L28.2242 29.6225C28.2242 29.6225 28.2242 29.6225 28.2242 29.6225M13.1893 11.6894L13.1894 11.6893C13.3734 11.5053 13.6319 11.3847 14.1221 11.3188L13.1893 11.6894ZM13.1893 11.6894C13.0053 11.8734 12.8847 12.1319 12.8188 12.6221L13.1893 11.6894ZM26.8103 11.6892L26.8105 11.6894C26.9945 11.8735 27.1151 12.1319 27.1809 12.6221M26.8103 11.6892L12.9843 22.0156C13.1366 22.168 13.317 22.2161 13.4542 22.2346C13.57 22.2501 13.7063 22.2501 13.8282 22.25C13.8355 22.25 13.8428 22.25 13.85 22.25H19.9999H26.1497C26.1569 22.25 26.1642 22.25 26.1715 22.25C26.2934 22.2501 26.4297 22.2501 26.5456 22.2346C26.6828 22.2161 26.8632 22.168 27.0155 22.0157C27.1678 21.8633 27.2159 21.6828 27.2343 21.5457C27.2498 21.43 27.2498 21.2937 27.2497 21.1718C27.2497 21.1645 27.2497 21.1572 27.2497 21.15V14.75C27.2497 13.7937 27.2487 13.1258 27.1809 12.6221M26.8103 11.6892C26.6263 11.5054 26.368 11.3847 25.8776 11.3188M26.8103 11.6892L25.8776 11.3188M27.1809 12.6221L26.6854 12.6887L27.1809 12.6221C27.1809 12.6221 27.1809 12.6221 27.1809 12.6221ZM25.8776 11.3188C25.3739 11.251 24.7061 11.25 23.7497 11.25M25.8776 11.3188C25.8776 11.3188 25.8776 11.3188 25.8776 11.3188L25.811 11.8143L23.7497 11.25M23.7497 11.25H16.25M23.7497 11.25H16.25M16.25 11.25C15.2936 11.25 14.6258 11.251 14.1221 11.3188L16.25 11.25Z" fill="#14181F" stroke="#14181F"/>
</svg>
