<svg width="20" height="20" viewBox="0 0 20 20" fill="none" xmlns="http://www.w3.org/2000/svg">
<path d="M7.49959 18.3333L7.29073 15.4093C7.17844 13.8372 8.42356 12.5 9.99956 12.5C11.5756 12.5 12.8207 13.8372 12.7085 15.4093L12.4996 18.3333" stroke="#14181F" stroke-width="1.5"/>
<path d="M1.95982 11.0113C1.66563 9.09692 1.51854 8.13977 1.88047 7.29123C2.24238 6.44268 3.04535 5.86211 4.65128 4.70096L5.85115 3.83341C7.8489 2.38897 8.84781 1.66675 10.0003 1.66675C11.1529 1.66675 12.1517 2.38897 14.1495 3.83341L15.3494 4.70096C16.9553 5.86211 17.7583 6.44268 18.1202 7.29123C18.4821 8.13977 18.3351 9.09692 18.0408 11.0113L17.79 12.6437C17.373 15.3575 17.1644 16.7144 16.1911 17.5239C15.2179 18.3334 13.7951 18.3334 10.9493 18.3334H9.05131C6.20561 18.3334 4.78275 18.3334 3.80949 17.5239C2.83623 16.7144 2.62772 15.3575 2.21068 12.6437L1.95982 11.0113Z" stroke="#14181F" stroke-width="1.5" stroke-linejoin="round"/>
</svg>
