<svg width="20" height="20" viewBox="0 0 20 20" fill="none" xmlns="http://www.w3.org/2000/svg">
<g clip-path="url(#clip0_13012_1669)">
<path d="M20 10C20 4.47717 15.5228 1.28506e-05 9.99999 1.28506e-05C4.47716 1.28506e-05 0 4.47717 0 10C0 14.6898 3.2286 18.6249 7.58423 19.7055V13.0558H5.52216V10H7.58423V8.68325C7.58423 5.27957 9.12455 3.70197 12.4662 3.70197C13.0997 3.70197 14.1928 3.82617 14.64 3.95041V6.72057C14.404 6.69573 13.9941 6.68329 13.4848 6.68329C11.845 6.68329 11.2115 7.30441 11.2115 8.91929V10H14.4778L13.9167 13.0558H11.2115V19.9268C16.1629 19.3287 20 15.1127 20 10Z" fill="#0866FF"/>
<path d="M13.9165 13.0558L14.4777 10H11.2113V8.91925C11.2113 7.30437 11.8448 6.68329 13.4846 6.68329C13.9939 6.68329 14.4038 6.69569 14.6398 6.72053V3.95041C14.1926 3.82617 13.0995 3.70193 12.466 3.70193C9.12441 3.70193 7.58405 5.27957 7.58405 8.68325V10H5.52197V13.0558H7.58405V19.7055C8.35777 19.8974 9.16677 20 9.99981 20C10.41 20 10.8141 19.9747 11.2113 19.9268V13.0558H13.9165Z" fill="white"/>
</g>
<defs>
<clipPath id="clip0_13012_1669">
<rect width="20" height="20" fill="white"/>
</clipPath>
</defs>
</svg>
