<svg width="20" height="20" viewBox="0 0 20 20" fill="none" xmlns="http://www.w3.org/2000/svg">
<path d="M1.6665 15C1.6665 13.7163 1.6665 13.0744 1.95545 12.6029C2.11712 12.3391 2.33895 12.1173 2.60278 11.9556C3.07429 11.6667 3.71614 11.6667 4.99984 11.6667C6.28354 11.6667 6.92539 11.6667 7.3969 11.9556C7.66073 12.1173 7.88255 12.3391 8.04423 12.6029C8.33317 13.0744 8.33317 13.7163 8.33317 15C8.33317 16.2837 8.33317 16.9256 8.04423 17.3971C7.88255 17.6609 7.66073 17.8828 7.3969 18.0444C6.92539 18.3333 6.28354 18.3333 4.99984 18.3333C3.71614 18.3333 3.07429 18.3333 2.60278 18.0444C2.33895 17.8828 2.11712 17.6609 1.95545 17.3971C1.6665 16.9256 1.6665 16.2837 1.6665 15Z" stroke="#14181F" stroke-width="1.5"/>
<path d="M11.6665 15C11.6665 13.7163 11.6665 13.0744 11.9554 12.6029C12.1171 12.3391 12.3389 12.1173 12.6028 11.9556C13.0743 11.6667 13.7162 11.6667 14.9998 11.6667C16.2835 11.6667 16.9254 11.6667 17.3969 11.9556C17.6608 12.1173 17.8826 12.3391 18.0443 12.6029C18.3332 13.0744 18.3332 13.7163 18.3332 15C18.3332 16.2837 18.3332 16.9256 18.0443 17.3971C17.8826 17.6609 17.6608 17.8828 17.3969 18.0444C16.9254 18.3333 16.2835 18.3333 14.9998 18.3333C13.7162 18.3333 13.0743 18.3333 12.6028 18.0444C12.3389 17.8828 12.1171 17.6609 11.9554 17.3971C11.6665 16.9256 11.6665 16.2837 11.6665 15Z" stroke="#14181F" stroke-width="1.5"/>
<path d="M1.6665 5.00001C1.6665 3.71631 1.6665 3.07445 1.95545 2.60295C2.11712 2.33911 2.33895 2.11729 2.60278 1.95561C3.07429 1.66667 3.71614 1.66667 4.99984 1.66667C6.28354 1.66667 6.92539 1.66667 7.3969 1.95561C7.66073 2.11729 7.88255 2.33911 8.04423 2.60295C8.33317 3.07445 8.33317 3.71631 8.33317 5.00001C8.33317 6.2837 8.33317 6.92555 8.04423 7.39706C7.88255 7.6609 7.66073 7.88272 7.3969 8.0444C6.92539 8.33334 6.28354 8.33334 4.99984 8.33334C3.71614 8.33334 3.07429 8.33334 2.60278 8.0444C2.33895 7.88272 2.11712 7.6609 1.95545 7.39706C1.6665 6.92555 1.6665 6.2837 1.6665 5.00001Z" stroke="#14181F" stroke-width="1.5"/>
<path d="M11.6665 5.00001C11.6665 3.71631 11.6665 3.07445 11.9554 2.60295C12.1171 2.33911 12.3389 2.11729 12.6028 1.95561C13.0743 1.66667 13.7162 1.66667 14.9998 1.66667C16.2835 1.66667 16.9254 1.66667 17.3969 1.95561C17.6608 2.11729 17.8826 2.33911 18.0443 2.60295C18.3332 3.07445 18.3332 3.71631 18.3332 5.00001C18.3332 6.2837 18.3332 6.92555 18.0443 7.39706C17.8826 7.6609 17.6608 7.88272 17.3969 8.0444C16.9254 8.33334 16.2835 8.33334 14.9998 8.33334C13.7162 8.33334 13.0743 8.33334 12.6028 8.0444C12.3389 7.88272 12.1171 7.6609 11.9554 7.39706C11.6665 6.92555 11.6665 6.2837 11.6665 5.00001Z" stroke="#14181F" stroke-width="1.5"/>
</svg>
