<svg width="20" height="20" viewBox="0 0 20 20" fill="none" xmlns="http://www.w3.org/2000/svg">
<path d="M5.6407 15.5461C8.75579 15.5461 11.2812 12.9988 11.2812 9.8565C11.2812 6.71423 8.75598 4.16675 5.6407 4.16675C2.52542 4.16675 0 6.71481 0 9.8565C0 12.9982 2.52561 15.5461 5.6407 15.5461Z" fill="black"/>
<path d="M17.469 9.85651C17.469 12.8143 16.2063 15.213 14.6487 15.213C13.091 15.213 11.8283 12.8143 11.8283 9.85651C11.8283 6.89875 13.0908 4.50005 14.6485 4.50005C16.2061 4.50005 17.469 6.89798 17.469 9.85651Z" fill="black"/>
<path d="M20 9.85651C20 12.5059 19.556 14.6551 19.0081 14.6551C18.4602 14.6551 18.0163 12.5065 18.0163 9.85651C18.0163 7.2065 18.4604 5.05796 19.0081 5.05796C19.5558 5.05796 20 7.20631 20 9.85651Z" fill="black"/>
</svg>
