<svg width="27" height="22" viewBox="0 0 27 22" fill="none" xmlns="http://www.w3.org/2000/svg">
<path d="M24.0975 16.0928V8.71914L13.8519 14.258C13.4301 14.4877 12.9907 14.6001 12.5336 14.5951C12.0765 14.5901 11.641 14.471 11.2271 14.2376L0.709168 8.4812C0.468751 8.34385 0.290504 8.17108 0.174426 7.96288C0.0581422 7.75448 0 7.53027 0 7.29027C0 7.05027 0.0581422 6.82637 0.174426 6.61859C0.290504 6.4106 0.468751 6.23793 0.709168 6.10058L11.2271 0.361864C11.4264 0.245167 11.6369 0.155631 11.8585 0.0932548C12.0801 0.0310851 12.3052 0 12.5336 0C12.762 0 12.9871 0.0310851 13.2087 0.0932548C13.4305 0.155631 13.6449 0.245167 13.8519 0.361864L25.8901 6.89216C26.1065 7.007 26.281 7.17378 26.4136 7.39251C26.546 7.61145 26.6122 7.84835 26.6122 8.10323V16.1104C26.6122 16.4653 26.4906 16.7621 26.2473 17.0008C26.004 17.2396 25.7082 17.359 25.36 17.359C25.0041 17.359 24.7047 17.2367 24.4618 16.9921C24.2189 16.7474 24.0975 16.4476 24.0975 16.0928ZM11.2271 21.6555L4.87805 18.2063C4.4348 17.958 4.08657 17.6189 3.83335 17.1889C3.58033 16.7586 3.45382 16.2939 3.45382 15.7947V11.2383L11.2271 15.4861C11.6363 15.7158 12.0706 15.8306 12.5302 15.8306C12.9895 15.8306 13.4301 15.7158 13.8519 15.4861L21.6251 11.2383V15.7947C21.6251 16.2939 21.4967 16.7586 21.2397 17.1889C20.9828 17.6189 20.6365 17.958 20.2009 18.2063L13.8519 21.6555C13.6449 21.7722 13.4305 21.8588 13.2087 21.9154C12.9871 21.9718 12.762 22 12.5336 22C12.3052 22 12.0801 21.9718 11.8585 21.9154C11.6369 21.8588 11.4264 21.7722 11.2271 21.6555Z" fill="#8F4E1F"/>
</svg>
